# xmcd
#
# Track frame offsets: 
#        150
#        18219
#        32906
#        53064
#        72668
#        93125
#        112250
#        131819
#        153850
#        175992
#
# Disc length: 2578 seconds
#
# Revision: 0
# Processed by: cddbd v1.5.2PL0 Copyright (c) Steve Scherf et al.
# Submitted via: ExactAudioCopyFreeDBPlugin 1.0
#
DISCID=850a100a
DTITLE=Tu Quyen - Nhung loi doi gian
DYEAR=1900
DGENRE=
TTITLE0=Nhung loi doi gian
TTITLE1=Lac mat em
TTITLE2=Cuoc tinh lo
TTITLE3=Nhu chiec que diem
TTITLE4=Ben doi hiu quanh
TTITLE5=Mot minh
TTITLE6=Ky niem nguoi di
TTITLE7=Thu sau
TTITLE8=An tinh mong manh
TTITLE9=Neu em la nguoi tinh
EXTD=
EXTT0=
EXTT1=
EXTT2=
EXTT3=
EXTT4=
EXTT5=
EXTT6=
EXTT7=
EXTT8=
EXTT9=
PLAYORDER=
